<?xml version="1.0" standalone="no"?>
<!DOCTYPE svg PUBLIC "-//W3C//DTD SVG 20010904//EN"
 "http://www.w3.org/TR/2001/REC-SVG-20010904/DTD/svg10.dtd">
<svg version="1.0" xmlns="http://www.w3.org/2000/svg"
 width="1024.000000pt" height="1024.000000pt" viewBox="0 0 1024.000000 1024.000000"
 preserveAspectRatio="xMidYMid meet">
<metadata>
Created by potrace 1.11, written by Peter Selinger 2001-2013
</metadata>
<g transform="translate(0.000000,1024.000000) scale(0.100000,-0.100000)"
fill="#000000" stroke="none">
<path d="M5280 8586 l0 -915 58 -11 c115 -24 252 -108 343 -208 49 -55 139
-220 139 -255 0 -9 1 -17 3 -17 1 0 66 -11 144 -25 254 -44 520 -115 758 -200
72 -26 138 -49 148 -52 16 -5 17 61 17 1296 l0 1301 -805 0 -805 0 0 -914z"/>
<path d="M3460 7961 l0 -1080 63 26 c224 92 610 200 876 244 134 22 144 26
154 49 45 116 94 198 159 266 83 87 162 138 273 175 l80 27 3 686 2 686 -805
0 -805 0 0 -1079z"/>
<path d="M7107 8583 c-4 -3 -7 -406 -7 -895 l0 -888 113 -54 c302 -146 630
-362 932 -615 107 -89 416 -396 503 -499 l62 -73 0 1516 0 1515 -798 0 c-439
0 -802 -3 -805 -7z"/>
<path d="M1637 8233 c-10 -9 -9 -2693 1 -2692 4 0 45 45 92 100 98 116 346
364 471 472 275 236 626 470 936 622 l102 50 0 728 1 727 -798 0 c-439 0 -802
-3 -805 -7z"/>
<path d="M5110 7484 c-207 -39 -371 -213 -387 -411 -6 -72 16 -61 -183 -88
-727 -101 -1497 -436 -2091 -911 -917 -734 -1500 -1802 -1624 -2979 -8 -77
-15 -157 -15 -177 l0 -38 -197 -2 -198 -3 -3 -252 -2 -253 199 0 200 0 6 -57
c3 -32 11 -105 18 -163 l12 -105 4343 -3 c2388 -1 4342 -1 4342 0 0 2 7 66 15
143 8 77 15 150 15 163 l0 22 215 0 215 0 -2 253 -3 252 -211 3 -211 2 -6 103
c-20 328 -106 749 -224 1091 -306 891 -904 1672 -1689 2204 -551 373 -1172
614 -1841 712 -75 11 -137 21 -139 23 -2 1 -8 34 -14 72 -27 172 -149 321
-308 376 -56 20 -183 32 -232 23z m480 -990 c705 -69 1390 -345 1969 -792 594
-460 1058 -1113 1297 -1827 81 -243 151 -570 173 -810 6 -66 13 -135 16 -152
l4 -33 -3860 0 -3859 0 0 43 c0 124 53 458 106 672 229 914 802 1730 1589
2261 592 399 1251 617 1990 658 109 6 418 -5 575 -20z"/>
</g>
</svg>
